{"accessors":[{"bufferView":0,"byteOffset":0,"componentType":5126,"count":1131,"max":[4.5,4.725,5.5],"min":[-4.5,-2,-5.5],"normalized":false,"type":"VEC3"},{"bufferView":1,"byteOffset":0,"componentType":5126,"count":1131,"max":[1,0.00067,1,1],"min":[-1,-1,-1,-1],"normalized":false,"type":"VEC4"},{"bufferView":2,"byteOffset":0,"componentType":5126,"count":1131,"max":[1,1,1],"min":[-1,-1,-1],"normalized":false,"type":"VEC3"},{"bufferView":3,"byteOffset":0,"componentType":5126,"count":1131,"max":[1,1],"min":[0,0],"normalized":false,"type":"VEC2"},{"bufferView":4,"byteOffset":0,"componentType":5125,"count":1131,"max":[1130],"min":[0],"normalized":false,"type":"SCALAR"}],"asset":{"generator":"Godot Engine v4.2.2.stable.official@15073afe3856abd2aa1622492fe50026c7d63dc1","version":"2.0"},"bufferViews":[{"buffer":0,"byteLength":13572,"byteOffset":0},{"buffer":0,"byteLength":18096,"byteOffset":13572},{"buffer":0,"byteLength":13572,"byteOffset":31668},{"buffer":0,"byteLength":9048,"byteOffset":45240},{"buffer":0,"byteLength":4524,"byteOffset":54288}],"buffers":[{"byteLength":58812,"uri":"csg_house0.bin"}],"extensionsUsed":["GODOT_single_root"],"materials":[{"extensions":{},"pbrMetallicRoughness":{"baseColorFactor":[0.99999988079071,0.99999988079071,0.99999988079071,1],"metallicFactor":0,"roughnessFactor":1}}],"meshes":[{"extras":{"targetNames":[]},"primitives":[{"attributes":{"NORMAL":2,"POSITION":0,"TANGENT":1,"TEXCOORD_0":3},"indices":4,"material":0,"mode":4}]}],"nodes":[{"children":[1],"extensions":{},"name":"House"},{"children":[2,3,4,5,6,7],"extensions":{},"mesh":0,"name":"CSGBox3D2","translation":[0,1.75,0]},{"extensions":{},"name":"hole"},{"extensions":{},"name":"door","translation":[-2.1800000667572,-0.34999999403954,-4.625]},{"extensions":{},"name":"w1","translation":[3.59722995758057,0,0]},{"extensions":{},"name":"w2","translation":[-3.83566999435425,0,0]},{"extensions":{},"name":"w3","rotation":[0,0.70710676908493,0,0.70710676908493],"translation":[1.65644001960754,0,-4.56022977828979]},{"children":[8,9],"extensions":{},"name":"roof","translation":[0,3.34999990463257,0]},{"extensions":{},"name":"CSGMesh3D2","translation":[0,-0.30100011825562,-5.25]},{"extensions":{},"name":"CSGMesh3D3","translation":[0,-0.30099999904633,5.25]}],"scene":0,"scenes":[{"nodes":[0]}]}