<?xml version="1.0" encoding="UTF-8" standalone="no"?>
<svg
   version="1.1"
   id="svg261"
   sodipodi:docname="03.svg"
   width="300"
   height="300"
   inkscape:export-filename="texture_03.png"
   inkscape:export-xdpi="192"
   inkscape:export-ydpi="192"
   inkscape:version="1.2.1 (9c6d41e410, 2022-07-14)"
   xmlns:inkscape="http://www.inkscape.org/namespaces/inkscape"
   xmlns:sodipodi="http://sodipodi.sourceforge.net/DTD/sodipodi-0.dtd"
   xmlns="http://www.w3.org/2000/svg"
   xmlns:svg="http://www.w3.org/2000/svg">
  <sodipodi:namedview
     id="namedview263"
     pagecolor="#505050"
     bordercolor="#eeeeee"
     borderopacity="1"
     inkscape:showpageshadow="0"
     inkscape:pageopacity="0"
     inkscape:pagecheckerboard="0"
     inkscape:deskcolor="#505050"
     showgrid="false"
     inkscape:zoom="1.352931"
     inkscape:cx="135.63146"
     inkscape:cy="153.00115"
     inkscape:window-width="1366"
     inkscape:window-height="706"
     inkscape:window-x="-4"
     inkscape:window-y="36"
     inkscape:window-maximized="1"
     inkscape:current-layer="svg261" />
  <defs
     id="defs245" />
  <g
     id="g259"
     transform="scale(0.29296875)">
    <path
       stroke="none"
       fill="#333335"
       d="M 0,0 H 1024 V 1024 H 0 V 0"
       id="path247" />
    <path
       stroke="none"
       fill="#ffffff"
       fill-opacity="0.101961"
       d="m 257,1024 h -1 V 897 H 129 v 127 h -1 V 897 H 0 v -1 H 128 V 769 H 0 v -1 H 128 V 641 H 0 v -1 H 128 V 513 H 0 v -1 H 128 V 385 H 0 v -1 H 128 V 257 H 0 v -1 H 128 V 129 H 0 v -1 H 128 V 0 h 1 V 128 H 256 V 0 h 1 V 128 H 384 V 0 h 1 V 128 H 512 V 0 h 1 V 128 H 640 V 0 h 1 V 128 H 768 V 0 h 1 V 128 H 896 V 0 h 1 v 128 h 127 v 1 H 897 v 127 h 127 v 1 H 897 v 127 h 127 v 1 H 897 v 127 h 127 v 1 H 897 v 127 h 127 v 1 H 897 v 127 h 127 v 1 H 897 v 127 h 127 v 1 H 897 v 127 h -1 V 897 H 769 v 127 h -1 V 897 H 641 v 127 h -1 V 897 H 513 v 127 h -1 V 897 H 385 v 127 h -1 V 897 H 257 v 127 M 769,257 V 384 H 896 V 257 H 769 m -1,0 H 641 V 384 H 768 V 257 m 1,-1 H 896 V 129 H 769 v 127 m 0,256 H 896 V 385 H 769 V 512 M 768,256 V 129 H 641 v 127 h 127 m 1,512 H 896 V 641 H 769 v 127 m -1,0 V 641 H 641 v 127 h 127 m 1,1 V 896 H 896 V 769 H 769 M 896,513 H 769 V 640 H 896 V 513 m -255,0 V 640 H 768 V 513 H 641 m 0,-1 H 768 V 385 H 641 V 512 M 513,256 H 640 V 129 H 513 V 256 M 384,384 V 257 H 257 V 384 H 384 M 512,257 H 385 V 384 H 512 V 257 m 1,0 V 384 H 640 V 257 H 513 m 0,255 H 640 V 385 H 513 V 512 M 384,129 H 257 V 256 H 384 V 129 M 512,256 V 129 H 385 v 127 h 127 m 0,256 V 385 H 385 V 512 H 512 M 256,257 H 129 V 384 H 256 V 257 M 129,129 V 256 H 256 V 129 H 129 M 256,512 V 385 H 129 v 127 h 127 m 0,256 V 641 H 129 v 127 h 127 m 1,0 H 384 V 641 H 257 v 127 m -1,1 H 129 V 896 H 256 V 769 M 129,513 V 640 H 256 V 513 H 129 m 255,0 H 257 V 640 H 384 V 513 m 256,0 H 513 V 640 H 640 V 513 M 512,768 V 641 H 385 v 127 h 127 m 1,0 H 640 V 641 H 513 v 127 m 0,1 V 896 H 640 V 769 H 513 m -1,0 H 385 V 896 H 512 V 769 M 385,513 V 640 H 512 V 513 H 385 M 257,769 V 896 H 384 V 769 H 257 m 0,-257 H 384 V 385 H 257 V 512 M 768,769 H 641 V 896 H 768 V 769"
       id="path249" />
  </g>
</svg>
